<svg width="101" height="123" viewBox="0 0 101 123" fill="none" xmlns="http://www.w3.org/2000/svg">
<g id="Group 130">
<path id="Vector" d="M2.91413 55.5556V24.0274L50.1364 3.03977L97.3586 24.0274V55.5556C97.3586 84.9848 77.1218 112.409 50.1364 119.358C23.1509 112.409 2.91413 84.9848 2.91413 55.5556Z" fill="#F4E4D2" stroke="#88590D" stroke-width="5.55556"/>
<path id="Vector_2" fill-rule="evenodd" clip-rule="evenodd" d="M51.8955 30.8671C52.9659 31.2478 53.9079 31.8961 54.6411 32.7359L72.0242 28.3891C72.3318 28.3111 72.6526 28.301 72.9645 28.3596C73.2763 28.4183 73.5717 28.5441 73.8299 28.7284C74.0736 28.9025 74.2803 29.1244 74.4347 29.3855L84.647 45.7264H88.8807V45.733C88.8807 47.2341 88.7023 48.6896 88.3673 50.0776C86.555 57.5835 80.1653 63.1312 72.5637 63.1312C64.96 63.1312 58.5724 57.5835 56.7602 50.0776C56.4177 48.6526 56.2453 47.192 56.2467 45.7264H59.4536L67.5142 34.0021L56.2445 36.8195L56.2467 37.024C56.2471 38.3742 55.8289 39.6914 55.0496 40.794C54.2704 41.8967 53.1684 42.7306 51.8955 43.181V91.4141H58.4223V95.7653H71.4759V100.116H27.9639V95.7653H41.0175V91.4141H47.5443V43.181C46.1216 42.6756 44.9173 41.6941 44.1351 40.4027L31.4166 43.7945L41.42 59.2543H43.4542V59.2608C43.4553 60.7243 43.283 62.1827 42.9407 63.6055C41.1285 71.1114 34.7387 76.6591 27.1372 76.6591C19.5334 76.6591 13.1459 71.1114 11.3336 63.6055C10.991 62.1805 10.8187 60.7199 10.8201 59.2543H13.4483L26.1864 41.2077C26.4805 40.7908 26.9117 40.4904 27.4048 40.3592L43.254 36.1342C43.418 34.9477 43.9049 33.8292 44.6616 32.9007C45.4182 31.9722 46.4154 31.2694 47.5443 30.8692V21.7948H51.8955V30.8671ZM79.517 45.7264L72.4767 34.4633L64.7337 45.7264H79.517ZM36.2377 59.2543L27.8856 46.3465L18.7741 59.2543H36.2377ZM83.8551 50.0776C82.1799 55.2664 77.6024 58.78 72.5637 58.78C67.525 58.78 62.9476 55.2664 61.2724 50.0776H83.8551ZM38.4285 63.6055C36.7533 68.7943 32.1758 72.3079 27.1372 72.3079C22.0985 72.3079 17.521 68.7943 15.8458 63.6055H38.4285ZM49.7199 39.1996C50.2969 39.1996 50.8503 38.9704 51.2583 38.5624C51.6663 38.1544 51.8955 37.601 51.8955 37.024C51.8955 36.447 51.6663 35.8936 51.2583 35.4856C50.8503 35.0776 50.2969 34.8484 49.7199 34.8484C49.1429 34.8484 48.5895 35.0776 48.1815 35.4856C47.7735 35.8936 47.5443 36.447 47.5443 37.024C47.5443 37.601 47.7735 38.1544 48.1815 38.5624C48.5895 38.9704 49.1429 39.1996 49.7199 39.1996Z" fill="#7C510C"/>
</g>
</svg>
